<svg width="20" height="21" viewBox="0 0 20 21" fill="none" xmlns="http://www.w3.org/2000/svg">
<path d="M6 3.33496V4.66829H18.6667V7.30767L17.1875 12.0016H5.5805L3.91383 0H0V1.33333H2.75283L4.4195 13.335H18.1653L20 7.51275V3.33496H6Z" fill="black"/>
<path d="M6.70768 14.681C6.00069 14.6818 5.32288 14.963 4.82295 15.4629C4.32303 15.9628 4.04182 16.6406 4.04102 17.3476C4.04102 18.0549 4.32197 18.7332 4.82206 19.2333C5.32216 19.7334 6.00044 20.0143 6.70768 20.0143C7.41493 20.0143 8.0932 19.7334 8.5933 19.2333C9.0934 18.7332 9.37435 18.0549 9.37435 17.3476C9.37356 16.6406 9.09235 15.9628 8.59242 15.4629C8.0925 14.963 7.41468 14.6818 6.70768 14.681ZM6.70768 18.681C6.44397 18.681 6.18619 18.6028 5.96692 18.4563C5.74766 18.3098 5.57676 18.1015 5.47584 17.8579C5.37493 17.6142 5.34852 17.3462 5.39997 17.0875C5.45142 16.8289 5.5784 16.5913 5.76487 16.4048C5.95134 16.2184 6.18892 16.0914 6.44756 16.0399C6.7062 15.9885 6.97429 16.0149 7.21793 16.1158C7.46156 16.2167 7.6698 16.3876 7.81631 16.6069C7.96282 16.8261 8.04102 17.0839 8.04102 17.3476C8.0406 17.7011 7.89999 18.04 7.65003 18.29C7.40007 18.5399 7.06118 18.6806 6.70768 18.681Z" fill="black"/>
<path d="M16.0409 14.681C15.3339 14.6818 14.6561 14.963 14.1562 15.4629C13.6563 15.9628 13.3751 16.6406 13.3743 17.3476C13.3743 18.0549 13.6552 18.7332 14.1553 19.2333C14.6554 19.7334 15.3337 20.0143 16.0409 20.0143C16.7482 20.0143 17.4265 19.7334 17.9266 19.2333C18.4266 18.7332 18.7076 18.0549 18.7076 17.3476C18.7068 16.6406 18.4256 15.9628 17.9257 15.4629C17.4257 14.963 16.7479 14.6818 16.0409 14.681ZM16.0409 18.681C15.7772 18.681 15.5194 18.6028 15.3002 18.4563C15.0809 18.3098 14.91 18.1015 14.8091 17.8579C14.7082 17.6142 14.6818 17.3462 14.7332 17.0875C14.7847 16.8289 14.9117 16.5913 15.0981 16.4048C15.2846 16.2184 15.5222 16.0914 15.7808 16.0399C16.0395 15.9885 16.3075 16.0149 16.5512 16.1158C16.7948 16.2167 17.0031 16.3876 17.1496 16.6069C17.2961 16.8261 17.3743 17.0839 17.3743 17.3476C17.3738 17.7011 17.2332 18.04 16.9833 18.29C16.7333 18.5399 16.3944 18.6806 16.0409 18.681Z" fill="black"/>
</svg>
