<svg width="23" height="21" viewBox="0 0 23 21" fill="none" xmlns="http://www.w3.org/2000/svg">
<path d="M20.8835 1.78955C20.3159 1.22192 19.642 0.771708 18.9003 0.464649C18.1586 0.15759 17.3636 -0.00030101 16.5609 4.30813e-07C15.7581 0.000301872 14.9633 0.158789 14.2218 0.466406C13.4803 0.774022 12.8068 1.22474 12.2396 1.79279L11.4992 2.54221L10.7649 1.79442L10.7601 1.78964C10.1928 1.22228 9.51923 0.772222 8.77794 0.465167C8.03665 0.158112 7.24213 7.27204e-05 6.43976 7.27204e-05C5.6374 7.27204e-05 4.84288 0.158112 4.10159 0.465167C3.3603 0.772222 2.68674 1.22228 2.11939 1.78964L1.78955 2.11948C0.643719 3.26531 0 4.81939 0 6.43984C0 8.06029 0.643719 9.61436 1.78955 10.7602L10.4949 19.4654L11.478 20.4954L11.5014 20.472L11.5268 20.4974L12.4479 19.5256L21.2134 10.7601C22.3575 9.61331 23 8.05957 23 6.4397C23 4.81982 22.3575 3.26608 21.2134 2.11934L20.8835 1.78955ZM20.133 9.67998L11.5014 18.3118L2.86957 9.67998C2.0102 8.82061 1.52742 7.65505 1.52742 6.43972C1.52742 5.22439 2.0102 4.05883 2.86957 3.19946L3.19946 2.86962C4.05841 2.01067 5.22326 1.52792 6.438 1.52746C7.65273 1.52701 8.81795 2.00888 9.67754 2.86718L11.4959 4.71863L13.3228 2.86962C13.7483 2.4441 14.2535 2.10655 14.8095 1.87626C15.3654 1.64597 15.9613 1.52744 16.5631 1.52744C17.1649 1.52744 17.7608 1.64597 18.3167 1.87626C18.8727 2.10655 19.3779 2.4441 19.8034 2.86962L20.1332 3.19941C20.9913 4.05949 21.4732 5.22482 21.4731 6.43973C21.4731 7.65465 20.9912 8.81995 20.133 9.67998Z" fill="black"/>
</svg>
