<svg width="35" height="37" viewBox="0 0 35 37" fill="none" xmlns="http://www.w3.org/2000/svg">
<path fill-rule="evenodd" clip-rule="evenodd" d="M6.46439 0.506946C6.97343 0.296136 7.519 0.187671 8.06996 0.187744L8.06996 0.190117C8.72086 0.189691 9.36291 0.340987 9.94513 0.631997C10.5274 0.923007 11.0337 1.34572 11.4241 1.86659L23.1689 1.86777C23.6969 1.16296 24.4335 0.64223 25.274 0.37939C26.1146 0.11655 27.0165 0.124936 27.8521 0.403356C28.6876 0.681776 29.4143 1.21611 29.9292 1.93062C30.444 2.64513 30.721 3.50356 30.7207 4.38426L30.7219 11.0937C30.7221 11.9742 30.4452 12.8324 29.9305 13.5468C29.4157 14.2611 28.6893 14.7954 27.854 15.074C27.0187 15.3525 26.117 15.3611 25.2765 15.0986C24.4361 14.8361 23.6995 14.3158 23.1712 13.6114H20.8648V19.2539H13.6736L13.6508 13.6114H11.4253C10.8969 14.3152 10.1605 14.835 9.32043 15.0972C8.48032 15.3595 7.57901 15.3508 6.74409 15.0725C5.90917 14.7942 5.18293 14.2603 4.66817 13.5465C4.15342 12.8326 3.87622 11.975 3.87582 11.0949L3.87463 4.38307C3.87456 3.83211 3.98303 3.28654 4.19384 2.7775C4.40465 2.26847 4.71367 1.80595 5.10326 1.41636C5.49284 1.02678 5.95536 0.717755 6.46439 0.506946ZM13.7124 28.8095H20.8648L20.8648 34.1625L17.4047 37L13.7341 34.1625L13.7124 28.8095ZM12.1597 10.2977L22.2257 10.2977L22.2269 5.26358H12.1586L12.1597 10.2977ZM7.18688 4.10229C7.14477 4.20416 7.12314 4.31333 7.12321 4.42356L7.1244 4.42238L7.1244 11.1354C7.12246 11.2468 7.14273 11.3574 7.18402 11.4609C7.2253 11.5644 7.28678 11.6586 7.36487 11.738C7.44295 11.8175 7.53608 11.8806 7.63881 11.9236C7.74154 11.9667 7.85183 11.9889 7.96323 11.9889C8.07463 11.9889 8.18491 11.9667 8.28765 11.9236C8.39038 11.8806 8.48351 11.8175 8.56159 11.738C8.63968 11.6586 8.70115 11.5644 8.74244 11.4609C8.78373 11.3574 8.80399 11.2468 8.80206 11.1354L8.80206 4.42238C8.80198 4.31215 8.78019 4.203 8.73793 4.10119C8.69568 3.99938 8.63378 3.90689 8.55578 3.82899C8.47777 3.7511 8.38519 3.68933 8.28332 3.64722C8.18145 3.60511 8.07228 3.58347 7.96204 3.58355C7.85181 3.58363 7.74267 3.60542 7.64086 3.64767C7.53904 3.68993 7.44655 3.75183 7.36866 3.82983C7.29076 3.90783 7.229 4.00041 7.18688 4.10229ZM25.6406 4.09687C25.5993 4.20034 25.5791 4.311 25.581 4.42238V11.1354C25.5791 11.2468 25.5993 11.3574 25.6406 11.4609C25.6819 11.5643 25.7434 11.6586 25.8215 11.738C25.8995 11.8175 25.9927 11.8806 26.0954 11.9236C26.1981 11.9667 26.3084 11.9889 26.4198 11.9889C26.5312 11.9889 26.6415 11.9667 26.7442 11.9236C26.847 11.8806 26.9401 11.8175 27.0182 11.738C27.0963 11.6586 27.1577 11.5643 27.199 11.4609C27.2403 11.3574 27.2606 11.2468 27.2587 11.1354V4.42238C27.2606 4.311 27.2403 4.20034 27.199 4.09687C27.1577 3.99341 27.0963 3.8992 27.0182 3.81975C26.9401 3.74029 26.847 3.67719 26.7442 3.63411C26.6415 3.59103 26.5312 3.56884 26.4198 3.56884C26.3084 3.56884 26.1981 3.59103 26.0954 3.63411C25.9927 3.67719 25.8995 3.74029 25.8215 3.81975C25.7434 3.8992 25.6819 3.99341 25.6406 4.09687Z" fill="#D81200"/>
<rect y="21" width="35" height="6" fill="#262626"/>
</svg>
