<svg width="19" height="19" viewBox="0 0 19 19" fill="none" xmlns="http://www.w3.org/2000/svg">
<path d="M17.4536 14.4461L14.401 11.3935L12.0529 10.4234C12.8348 9.31161 13.2536 7.98523 13.2521 6.62605C13.2521 2.97242 10.2797 0 6.62605 0C2.97242 0 0 2.97242 0 6.62605C0 10.2797 2.97242 13.2521 6.62605 13.2521C7.99705 13.2537 9.3344 12.8276 10.4518 12.0332L11.4194 14.3749L14.4719 17.4277C14.6677 17.6235 14.9001 17.7788 15.1559 17.8847C15.4117 17.9907 15.6858 18.0452 15.9627 18.0452C16.2396 18.0453 16.5137 17.9907 16.7695 17.8848C17.0253 17.7788 17.2577 17.6235 17.4535 17.4278C17.6493 17.232 17.8046 16.9996 17.9106 16.7438C18.0165 16.488 18.0711 16.2139 18.0711 15.937C18.0711 15.6601 18.0166 15.386 17.9106 15.1302C17.8047 14.8744 17.6494 14.6419 17.4536 14.4461ZM1.20474 6.62605C1.20474 3.6368 3.6368 1.20474 6.62605 1.20474C9.6153 1.20474 12.0474 3.6368 12.0474 6.62605C12.0474 9.6153 9.6153 12.0474 6.62605 12.0474C3.6368 12.0474 1.20474 9.6153 1.20474 6.62605ZM16.6017 16.5758C16.4321 16.745 16.2023 16.84 15.9628 16.84C15.7232 16.84 15.4934 16.745 15.3238 16.5758L12.4411 13.693L11.5415 11.5157L13.7189 12.4152L16.6018 15.298C16.7709 15.4676 16.8659 15.6974 16.8659 15.9369C16.8659 16.1765 16.7709 16.4062 16.6017 16.5758Z" fill="#262626" fill-opacity="0.69"/>
</svg>
